PathFileType	4	(X/Y/Z)	../Python\running\Running06\task.trc
DataRate	CameraRate	NumFrames	NumMarkers	Units	OrigDataRate	OrigDataStartFrame	OrigNumFrames
200.000000	200.000000	4	30	mm	200.000000	52	208
Frame#	Time	C7			RBAK			CLAV			STRN			RASI			LASI			PE01			RTH1			RTH2			RTH3			RD5M			RTOE			LTH2			LTH3			LTB2			LTB3			LHEE			LTOE			LD5M			RHEE			RTB2			LPSI			RPSI			T10			RTB3			RTB1			PE03			PE02			LTH1			LTB1			
		X1	Y1	Z1	X2	Y2	Z2	X3	Y3	Z3	X4	Y4	Z4	X5	Y5	Z5	X6	Y6	Z6	X7	Y7	Z7	X8	Y8	Z8	X9	Y9	Z9	X10	Y10	Z10	X11	Y11	Z11	X12	Y12	Z12	X13	Y13	Z13	X14	Y14	Z14	X15	Y15	Z15	X16	Y16	Z16	X17	Y17	Z17	X18	Y18	Z18	X19	Y19	Z19	X20	Y20	Z20	X21	Y21	Z21	X22	Y22	Z22	X23	Y23	Z23	X24	Y24	Z24	X25	Y25	Z25	X26	Y26	Z26	X27	Y27	Z27	X28	Y28	Z28	X29	Y29	Z29	X30	Y30	Z30	

53	0.26	-913.661254882813	1317.495971679688	111.2839965820313	-941.1541137695317	1248.922119140625	245.1294097900392	-800.3970336914067	1215.077026367188	102.9882888793946	-770.590209960938	1023.3642578125	125.2720489501954	-831.424438476563	827.737426757813	279.4271545410157	-825.1701049804692	842.2089843750005	53.67999267578128	-1007.184204101563	929.3530883789067	182.1525115966797	-938.4583129882817	537.7911376953127	315.707977294922	-929.416137695313	459.050476074219	305.218719482422	-896.0656127929692	510.3901367187502	311.1914978027345	-1346.138061523438	221.4847259521486	220.8291473388673	-1320.905639648438	182.3634643554688	185.6827545166016	-813.9154663085942	531.8295898437502	36.77376937866212	-759.8482055664065	587.9128417968752	25.59994125366212	-811.3034667968755	201.4441375732423	69.36887359619143	-769.572875976563	224.6199035644532	74.9571228027344	-875.7667846679692	32.62428665161134	130.1907958984376	-692.6054687500002	31.58831024169923	156.2081146240235	-719.9859619140627	13.52441406250001	96.04730224609381	-1330.164306640625	350.0457153320314	124.5314254760743	-1131.81201171875	369.6299438476564	254.5470275878907	-1020.088928222657	896.7653808593755	137.3195953369141	-1017.745178222657	896.1311035156255	222.3592376708986	-983.8414916992192	1037.684814453125	175.0052337646485	-1152.736938476563	325.199188232422	239.5382537841798	-1077.695678710938	336.8463439941407	263.2802124023439	-1033.12939453125	877.459106445313	148.6240844726563	-1035.625	871.449584960938	198.5967864990236	-809.5273437500005	590.4398193359377	19.12346839904786	-794.0302124023442	277.5838623046876	53.12223052978518	
54	0.265	-897.3889770507817	1314.709716796875	110.5012359619141	-926.6127929687505	1245.915283203125	244.0378265380861	-784.0806274414067	1211.034545898438	103.5860443115235	-754.777038574219	1018.624938964844	126.2096405029297	-815.6862182617192	824.2124633789067	278.3502197265626	-810.3932495117192	839.9260864257817	52.31180953979495	-992.5320434570317	926.0097045898442	183.5891723632813	-916.1859741210942	534.121520996094	316.5132751464845	-905.1790161132817	455.6268310546877	306.5086669921876	-873.1426391601567	507.7843933105471	312.3545227050782	-1317.582763671875	219.7929077148439	223.6843414306642	-1292.464721679688	180.7266082763672	188.3482360839844	-802.3261718750005	528.8464355468752	36.78791427612306	-747.4488525390627	583.458923339844	24.84874534606935	-805.004272460938	200.8879241943361	69.2091979980469	-762.8037719726565	222.6516113281251	75.77384948730472	-876.003784179688	32.68571090698244	130.3413543701172	-692.9157714843752	31.8495273590088	156.4032897949219	-720.213073730469	13.90013694763184	96.19699096679693	-1304.385986328125	348.2708129882814	126.9608764648438	-1104.636352539063	366.6103515625001	256.8800354003907	-1005.220153808594	894.216674804688	138.1804504394532	-1002.456237792969	891.5889282226567	223.4310455322267	-968.1181030273442	1034.667602539063	174.8824462890626	-1125.787963867188	322.4545898437501	241.5694580078126	-1050.103759765625	333.2823791503907	264.438446044922	-1018.357421875	874.3961791992192	149.5298156738282	-1020.318603515625	867.583862304688	199.4425201416017	-796.755737304688	587.317077636719	18.49204444885255	-784.9965209960942	276.5535583496095	53.24948883056643	
55	0.27	-881.1054077148442	1312.116577148438	109.8030090332032	-912.0891113281255	1243.108276367188	242.9811096191407	-767.7926025390627	1207.172973632813	104.2833709716797	-738.9961547851565	1014.106750488282	127.2178802490235	-800.0339355468755	820.791625976563	277.2329711914064	-795.735961914063	837.8195800781255	50.96548461914065	-977.7333984375005	923.0613403320317	185.0645294189454	-893.7951660156255	530.8336181640627	317.2269592285157	-880.6719360351567	452.6951904296877	307.638397216797	-850.0850219726567	505.6960754394534	313.4002990722657	-1288.35302734375	217.3539581298829	226.7050018310548	-1263.292602539063	178.4701385498047	191.0621337890626	-790.9852905273442	526.003112792969	36.70041656494142	-735.272644042969	579.2461547851565	24.15435600280763	-798.976196289063	200.391082763672	68.96304321289065	-756.3599853515627	220.8099975585939	76.42530822753909	-876.2133789062505	33.051082611084	130.3967742919922	-693.209167480469	32.01023864746095	156.4979705810547	-720.4520263671877	14.14575767517091	96.32321166992193	-1278.429809570313	345.8612365722657	129.7154235839844	-1077.1298828125	363.4606933593751	259.270233154297	-990.3793945312505	892.0601196289067	139.0956115722657	-987.0959472656255	887.553344726563	224.6081542968751	-952.4326171875005	1031.870239257813	174.7516174316407	-1098.409545898438	319.5588684082032	243.6301116943361	-1022.135009765625	329.8080139160157	265.5810852050782	-1003.615051269532	871.7687377929692	150.5293273925782	-1004.988342285157	864.2030639648442	200.3946228027345	-784.2272949218755	584.3216552734377	17.80970001220704	-776.4028930664067	275.516326904297	53.28820419311526	
56	0.275	-864.817993164063	1309.744873046875	109.1928482055665	-897.5705566406255	1240.54345703125	241.9595489501954	-751.5399169921877	1203.55029296875	105.0800857543946	-723.247497558594	1009.877136230469	128.2927398681641	-784.4530639648442	817.533325195313	276.088348388672	-781.1816406250005	835.8820190429692	49.64730072021487	-962.7742309570317	920.531127929688	186.5133361816407	-871.2858276367192	527.9639282226565	317.8435058593751	-855.898315429688	450.2879943847659	308.5981445312501	-826.894653320313	504.1506958007815	314.3301391601564	-1258.490844726563	214.1902770996095	229.8715362548829	-1233.415771484375	175.6135864257813	193.8265228271486	-779.7724609375005	523.327819824219	36.4555130004883	-723.237976074219	575.401062011719	23.55136299133301	-793.2673339843755	199.8615570068361	68.64643096923831	-750.2815551757815	219.0223541259767	76.9113693237305	-876.3754882812505	33.63726806640626	130.3604278564454	-693.4667968750002	32.07131958007814	156.5258483886719	-720.669860839844	14.26874065399171	96.41377258300787	-1252.316040039063	342.7917785644532	132.7509155273438	-1049.329345703125	360.2392578125001	261.6744995117189	-975.5503540039067	890.2866821289067	140.0251007080079	-971.6644897460942	884.0980834960942	225.8362884521486	-936.7812500000005	1029.322265625	174.5996093750001	-1070.636352539063	316.5576171875001	245.6967773437501	-993.8583374023442	326.5049133300782	266.7348937988282	-988.8854370117192	869.584594726563	151.579818725586	-989.6278686523442	861.337280273438	201.4110870361329	-771.8823242187505	581.4988403320315	17.0870590209961	-768.3196411132817	274.3816833496095	53.21912765502933	
